<svg xmlns="http://www.w3.org/2000/svg" xmlns:xlink="http://www.w3.org/1999/xlink" viewBox="0 0 265 288"><defs><style>.cls-1,.cls-2{fill:#fff;}.cls-13,.cls-17,.cls-19,.cls-2,.cls-24{fill-rule:evenodd;}.cls-3{fill:#e6e6e6;}.cls-4{mask:url(#mask);}.cls-5{fill:#ffb1b1;}.cls-6{fill:#4a312c;}.cls-7{mask:url(#mask-2-2);}.cls-8{fill:#d0c6ac;}.cls-9{mask:url(#mask-3);}.cls-10{fill:#ffdbac;}.cls-11{mask:url(#mask-4-2);}.cls-12{fill-opacity:0.1;}.cls-13{fill:#b7c1db;}.cls-14{mask:url(#mask-5);}.cls-15{fill:#75eab5;}.cls-16{mask:url(#mask-6-2);}.cls-17{fill:#f4f4f4;}.cls-18{mask:url(#mask-7);}.cls-19,.cls-21{fill-opacity:0.16;}.cls-20{fill-opacity:0.7;}.cls-22{fill-opacity:0.6;}.cls-23{mask:url(#mask-8-2);}.cls-24{fill:#331b0c;}.cls-25{mask:url(#mask-9);}.cls-26{mask:url(#mask-10-2);}.cls-27{fill:#252c2f;}.cls-28{fill:#c15766;}.cls-29{fill:#ff7381;}.cls-30{fill:#363636;}.cls-31{fill:none;stroke:#363636;stroke-miterlimit:10;stroke-width:1.12px;}</style><mask id="mask" x="13" y="40" width="240" height="240" maskUnits="userSpaceOnUse"><g id="mask-2"><circle id="path-1" class="cls-1" cx="133" cy="160" r="120"/></g></mask><mask id="mask-2-2" x="1" y="0" width="264" height="280" maskUnits="userSpaceOnUse"><g id="mask-4"><path id="path-3" class="cls-2" d="M13,160a120,120,0,0,0,240,0h12V0H1V160Z"/></g></mask><mask id="mask-3" x="1" y="36" width="264" height="244" maskUnits="userSpaceOnUse"><g id="mask-6"><path id="path-5" class="cls-2" d="M157,180.61V199h4a72,72,0,0,1,72,72v9H33v-9a72,72,0,0,1,72-72h4V180.61a56,56,0,0,1-31.69-44.73A12,12,0,0,1,67,124V110A12,12,0,0,1,77,98.17V92h0a56,56,0,0,1,56-56h0a56,56,0,0,1,56,56v6.17A12,12,0,0,1,199,110v14a12,12,0,0,1-10.31,11.88A56,56,0,0,1,157,180.61Z"/></g></mask><mask id="mask-4-2" x="33" y="36" width="200" height="244" maskUnits="userSpaceOnUse"><g id="mask-8"><path id="path-7" class="cls-2" d="M157,180.61V199h4a72,72,0,0,1,72,72v9H33v-9a72,72,0,0,1,72-72h4V180.61a56,56,0,0,1-31.69-44.73A12,12,0,0,1,67,124V110A12,12,0,0,1,77,98.17V92h0a56,56,0,0,1,56-56h0a56,56,0,0,1,56,56v6.17A12,12,0,0,1,199,110v14a12,12,0,0,1-10.31,11.88A56,56,0,0,1,157,180.61Z"/></g></mask><mask id="mask-5" x="1" y="170" width="264" height="110" maskUnits="userSpaceOnUse"><g id="mask-10"><path id="path-9" class="cls-2" d="M109,183.07c-17.92,2-31.72,7.48-32,21.57A72,72,0,0,0,33,271h0v9H233v-9a72,72,0,0,0-44-66.36c-.28-14.09-14.08-19.56-32-21.57V202h0a24,24,0,0,1-24,24h0a24,24,0,0,1-24-24Z"/></g></mask><mask id="mask-6-2" x="33" y="183.07" width="200" height="96.93" maskUnits="userSpaceOnUse"><g id="mask-12"><path id="path-11" class="cls-2" d="M109,183.07c-17.92,2-31.72,7.48-32,21.57A72,72,0,0,0,33,271h0v9H233v-9a72,72,0,0,0-44-66.36c-.28-14.09-14.08-19.56-32-21.57V202h0a24,24,0,0,1-24,24h0a24,24,0,0,1-24-24Z"/></g></mask><mask id="mask-7" x="33" y="182.72" width="200" height="97.28" maskUnits="userSpaceOnUse"><g id="mask-14"><path id="path-13" class="cls-2" d="M109,183.07c-17.92,2-31.72,7.48-32,21.57A72,72,0,0,0,33,271h0v9H233v-9a72,72,0,0,0-44-66.36c-.28-14.09-14.08-19.56-32-21.57V202h0a24,24,0,0,1-24,24h0a24,24,0,0,1-24-24Z"/></g></mask><mask id="mask-8-2" x="1" y="0" width="264" height="280" maskUnits="userSpaceOnUse"><g id="mask-16"><rect id="path-15" class="cls-1" x="1" width="264" height="280"/></g></mask><mask id="mask-9" x="17" y="72" width="224.83" height="216" maskUnits="userSpaceOnUse"><g id="mask-18"><path id="path-17" class="cls-2" d="M150.43,170.17c-2.52,2.29-5.19,3.32-8.58,2.6-.58-.12-2.95-4.54-8.85-4.54s-8.27,4.42-8.85,4.54c-3.39.72-6.07-.31-8.58-2.6-4.72-4.31-8.65-10.26-6.29-16.75,1.23-3.38,3.23-7.1,6.87-8.17,3.89-1.15,9.35,0,13.26-.79A8.71,8.71,0,0,0,133,143a8.72,8.72,0,0,0,3.58,1.46c3.92.78,9.38-.36,13.27.79,3.64,1.07,5.64,4.79,6.87,8.17,2.36,6.49-1.57,12.44-6.29,16.75M189.08,98c-3.41,8.4-2.09,18.86-2.72,27.68-.52,7.16-2,17.91-8.39,22.53-3.25,2.37-9.18,6.35-13.43,5.24-2.93-.76-3.24-9.16-7.08-12.3a22.43,22.43,0,0,0-15.31-4.89c-2.37.1-7.17.08-9.15,1.9-2-1.82-6.78-1.8-9.15-1.9a22.43,22.43,0,0,0-15.31,4.89c-3.84,3.14-4.15,11.54-7.08,12.3-4.25,1.11-10.18-2.87-13.43-5.24-6.37-4.62-7.87-15.37-8.39-22.53-.63-8.82.69-19.28-2.72-27.68-1.66,0-.57,16.13-.57,16.13v20.36c0,15.28,9.59,38.17,30.76,46.9C112.29,183.53,124,187,133,187s20.71-3.14,25.89-5.28c21.17-8.73,30.72-31.95,30.76-47.23V114.13S190.74,98,189.08,98"/></g></mask><mask id="mask-10-2" x="0" y="0" width="264" height="280" maskUnits="userSpaceOnUse"><g id="mask-20"><path id="path-19" class="cls-2" d="M183.68,39c5.41-5,6.71-15,3.64-21.5-3.77-8-11.42-9-18.75-5.48-6.91,3.31-13,4.42-20.62,2.81-7.26-1.54-14.14-4.26-21.65-4.7A40.61,40.61,0,0,0,93.6,23.13a36.22,36.22,0,0,0-4.11,5.8A18.26,18.26,0,0,0,87,34.19c-.2.9.17,3.1-.28,3.83s-2.3,1.52-3.07,2.1a25,25,0,0,0-4.18,4.05A29.4,29.4,0,0,0,74.1,54.74c-4.1,13.25-4.45,29,.86,42,.7,1.73,2.9,5.35,4.18,1.63.26-.73-.33-3.19-.33-3.93,0-2.72,1.51-20.73,8-30.82,2.13-3.28,12-15.58,14-15.68,1.07,1.7,11.88,12.51,39.94,11.24,12.67-.57,22.4-6.26,24.74-8.72,1,5.53,13,13.81,14.82,17.22C185.6,77.54,186.77,98,188.78,98s3.45-5.24,3.87-6.23c3.07-7.38,3.59-16.64,3.26-24.56C195.49,57,191.28,45.94,183.68,39Z"/></g></mask></defs><g id="Layer_2" data-name="Layer 2"><g id="Layer_1-2" data-name="Layer 1"><g id="Circle"><g id="Circle-Background"><circle id="path-1-2" data-name="path-1" class="cls-3" cx="133" cy="160" r="120"/></g><g id="Color_Palette_Blue-01-Clipped" data-name="Color/Palette/Blue-01-Clipped"><g class="cls-4"><g id="Color_Palette_Blue-01" data-name="Color/Palette/Blue-01"><rect id="_Color" data-name="ðŸ–Color" class="cls-5" x="13" y="40" width="240" height="240"/></g></g></g></g><path class="cls-6" d="M88.82,188.68a10.43,10.43,0,0,1-5-5.51c-.85-2.59-.16-5.15-.76-5.3s-1.08,2.9-3.56,4.65c-2.1,1.47-5.57,1.94-6.81.54-1.48-1.69,1.57-4.62,1.84-11.13.12-3,.27-6.65-1.84-8.32-3.81-3-11.7,3.17-13.94.54-.89-1.05-.57-3.14.33-4.32,1.66-2.19,4.78-.53,6.8-2.49,2.26-2.17,1.87-7.56-.64-9.5-1.38-1.07-2.76-.6-6.59-.54-3.42,0-8,.12-10.38-1-5.63-2.54-8-15.32-4.75-25.71C47,109.68,54.82,107.42,54.17,98.28c-.24-3.48-1.52-5.14-1.15-9.94.46-5.81,2.88-10.38,1.87-11-.64-.35-1.61,1.53-3.88,2a6.89,6.89,0,0,1-6.49-2.3c-1.07-1.58-1.18-4.6,10.81-22.91C60.4,46.45,63,42.54,65.41,40.66a83,83,0,0,1,15.13-8.93c2.68-1.18,6.54-2.69,6.33-3.89s-3.79-.76-4.32-2.16c-.65-1.73,3.69-5.45,9.8-8.93,11.76-6.71,34.23-14.92,42.06-6.34,2.33,2.55,2.31,5.43,5.33,6.48,4,1.39,6.16-2.91,12.39-2.59,4.55.23,5.57,2.63,9.8,2,3.52-.52,3.63-2.31,6.48-2.74,6.26-.95,15.17,6.25,15.56,13.25.16,3-1.25,5.25.29,7.2,1.39,1.77,3.29.85,5.18,2.16,3.95,2.75.13,9.83,3.17,16.57,2.41,5.35,6,3.45,11.38,9.8,7,8.17,3.38,14,9.94,19.3,5.2,4.19,10.7,3.13,11.67,6.91.83,3.25-2.49,6.8-2.88,7.21-1.31,1.36-2.23,1.58-7.35,4-6.72,3.22-7.09,3.78-7.2,4.32-.74,3.51,9.17,7,8.5,9.94-.5,2.14-8.58.86-8.93,2.6-.2,1,2.28,1.4,3.31,3.31,2.75,5.09-7.87,15-6.34,16.71,1.13,1.25,7.45-3.53,8.93-2s-3.37,6.28-1.73,9.37c1.88,3.52,10.64,1.9,10.66,2.44s-7.39,3.27-16,1.59c-2.09-.41-3.4-.92-4.32-.14-2.63,2.2,2.87,10.56-.14,13.54-1.62,1.59-4,0-6.2,2.16a5.68,5.68,0,0,0-1.58,5.18c.55,2,2.37,2.37,2.16,3.46s-2.48,2-4.47,1.87c-3.1-.19-4.46-2.7-5.47-2.16-1.16.62.58,3.94-.14,7.93-.69,3.77-3.46,7.41-6.49,8.64-5.47,2.22-12.41-3.21-14-4.32C158.09,178.79,138.59,176.34,88.82,188.68Z"/><g id="Page-1"><g id="mike-avatar"><g id="Avataaar-Clipped"><g class="cls-7"><g id="Avataaar"><g id="Body"><g id="path-5-link"><path id="path-5-2" data-name="path-5" class="cls-8" d="M157,180.61V199h4a72,72,0,0,1,72,72v9H33v-9a72,72,0,0,1,72-72h4V180.61a56,56,0,0,1-31.69-44.73A12,12,0,0,1,67,124V110A12,12,0,0,1,77,98.17V92h0a56,56,0,0,1,56-56h0a56,56,0,0,1,56,56v6.17A12,12,0,0,1,199,110v14a12,12,0,0,1-10.31,11.88A56,56,0,0,1,157,180.61Z"/></g><g id="Skin_-03-Brown-Clipped" data-name="Skin/ðŸ‘¶ðŸ½-03-Brown-Clipped"><g class="cls-9"><g id="Skin_-03-Brown" data-name="Skin/ðŸ‘¶ðŸ½-03-Brown"><g id="Color"><rect id="Rectangle" class="cls-10" x="1" y="36" width="264" height="244"/></g></g></g></g><g id="Neck-Shadow-Clipped"><g class="cls-11"><path id="Neck-Shadow" class="cls-12" d="M189,115v23a56,56,0,0,1-112,0v-8a56,56,0,0,0,112,0Z"/></g></g></g><g id="Clothing_Hoodie" data-name="Clothing/Hoodie"><g id="Hoodie"><path id="react-path-343" class="cls-13" d="M109,183.07c-17.92,2-31.72,7.48-32,21.57A72,72,0,0,0,33,271h0v9H233v-9a72,72,0,0,0-44-66.36c-.28-14.09-14.08-19.56-32-21.57V202h0a24,24,0,0,1-24,24h0a24,24,0,0,1-24-24Z"/></g><g id="Color_Palette_Gray-01-Clipped" data-name="Color/Palette/Gray-01-Clipped"><g class="cls-14"><g id="Color_Palette_Gray-01" data-name="Color/Palette/Gray-01"><g id="_Color-2" data-name="ðŸ–Color"><rect class="cls-15" x="1" y="170" width="264" height="110"/></g></g></g></g><g id="Straps-Clipped"><g class="cls-16"><path id="Straps" class="cls-17" d="M103,231.74V280H96V228.15A64.77,64.77,0,0,0,103,231.74Zm67-3.59V268.5a3.5,3.5,0,0,1-7,0V231.74A64.77,64.77,0,0,0,170,228.15Z"/></g></g><g id="Shadow-Clipped"><g class="cls-18"><path id="Shadow" class="cls-19" d="M92,182.72c-15,2.85-25.46,8.52-25.46,19.59C66.5,222,99.54,238,133,238s66.5-16,66.5-35.69c0-11.07-10.41-16.74-25.46-19.59,9.08,3.35,15,9,15,18.36,0,20.39-27.82,36.92-56,36.92s-56-16.53-56-36.92C77,191.71,82.88,186.07,92,182.72Z"/></g></g></g><g id="Face"><g id="Mouth_Default" data-name="Mouth/Default"><path id="Mouth" class="cls-20" d="M119,149a14,14,0,0,0,14,14h0a14,14,0,0,0,14-14"/></g><g id="Nose_Default" data-name="Nose/Default"><path id="Nose" class="cls-21" d="M121,130c0,4.42,5.37,8,12,8h0c6.63,0,12-3.58,12-8"/></g><g id="Eyes_Default-_" data-name="Eyes/Default-ðŸ˜€"><circle id="Eye" class="cls-22" cx="107" cy="112" r="6"/><circle id="Eye-2" data-name="Eye" class="cls-22" cx="159" cy="112" r="6"/></g><g id="Eyebrow_Outline_Default" data-name="Eyebrow/Outline/Default"><g id="I-Browse"><path id="Eyebrow" class="cls-22" d="M92.63,99.16c3.92-5.51,14.65-8.6,23.89-6.33a2,2,0,1,0,1-3.88c-10.74-2.64-23.17.94-28.11,7.89a2,2,0,1,0,3.26,2.32Z"/><path id="Eyebrow-2" data-name="Eyebrow" class="cls-22" d="M173.37,99.16c-3.91-5.51-14.65-8.6-23.89-6.33a2,2,0,0,1-1-3.88c10.74-2.64,23.17.94,28.11,7.89a2,2,0,0,1-3.26,2.32Z"/></g></g></g><g id="Top_Short-Hair_Short-Waved-Clipped" data-name="Top/Short-Hair/Short-Waved-Clipped"><g class="cls-23"><g id="Top_Short-Hair_Short-Waved" data-name="Top/Short-Hair/Short-Waved"><g id="Group"><g id="Facial-Hair_Beard-Light" data-name="Facial-Hair/Beard-Light"><g id="Lite-Beard"><path id="react-path-342" class="cls-24" d="M150.43,170.17c-2.52,2.29-5.19,3.32-8.58,2.6-.58-.12-2.95-4.54-8.85-4.54s-8.27,4.42-8.85,4.54c-3.39.72-6.07-.31-8.58-2.6-4.72-4.31-8.65-10.26-6.29-16.75,1.23-3.38,3.23-7.1,6.87-8.17,3.89-1.15,9.35,0,13.26-.79A8.71,8.71,0,0,0,133,143a8.72,8.72,0,0,0,3.58,1.46c3.92.78,9.38-.36,13.27.79,3.64,1.07,5.64,4.79,6.87,8.17,2.36,6.49-1.57,12.44-6.29,16.75M189.08,98c-3.41,8.4-2.09,18.86-2.72,27.68-.52,7.16-2,17.91-8.39,22.53-3.25,2.37-9.18,6.35-13.43,5.24-2.93-.76-3.24-9.16-7.08-12.3a22.43,22.43,0,0,0-15.31-4.89c-2.37.1-7.17.08-9.15,1.9-2-1.82-6.78-1.8-9.15-1.9a22.43,22.43,0,0,0-15.31,4.89c-3.84,3.14-4.15,11.54-7.08,12.3-4.25,1.11-10.18-2.87-13.43-5.24-6.37-4.62-7.87-15.37-8.39-22.53-.63-8.82.69-19.28-2.72-27.68-1.66,0-.57,16.13-.57,16.13v20.36c0,15.28,9.59,38.17,30.76,46.9C112.29,183.53,124,187,133,187s20.71-3.14,25.89-5.28c21.17-8.73,30.72-31.95,30.76-47.23V114.13S190.74,98,189.08,98"/></g><g id="Color_Hair_Brown-Clipped" data-name="Color/Hair/Brown-Clipped"><g class="cls-25"><g id="Color_Hair_Brown" data-name="Color/Hair/Brown"><g id="Color-2" data-name="Color"><rect id="Rectangle-2" data-name="Rectangle" class="cls-6" x="17" y="72" width="224.83" height="216"/></g></g></g></g></g><g id="Skin_-03-Brown-Clipped-2" data-name="Skin/ðŸ‘¶ðŸ½-03-Brown-Clipped"><g class="cls-26"><g id="Skin_-03-Brown-2" data-name="Skin/ðŸ‘¶ðŸ½-03-Brown"><g id="Color-3" data-name="Color"><rect id="Rectangle-3" data-name="Rectangle" class="cls-6" width="264" height="280"/></g></g></g></g><g id="Top__Resources_Prescription-02" data-name="Top/_Resources/Prescription-02"><g id="Wayfarers"><path id="Left" class="cls-27" d="M102,133H99.24C85.31,133,77,125.34,77,112.5,77,102.13,78.82,92,100.53,92h2.94C125.18,92,127,102.13,127,112.5,127,124.57,116.72,133,102,133Zm-1.61-35C81,98,81,104.84,81,113.5c0,7.07,3.12,15.5,18,15.5h3c12.36,0,21-6.37,21-15.5,0-8.66,0-15.5-19.39-15.5Z"/><path id="Right" class="cls-27" d="M164,133h-2.76c-13.93,0-22.24-7.66-22.24-20.5,0-10.37,1.82-20.5,23.53-20.5h2.94C187.18,92,189,102.13,189,112.5,189,124.57,178.72,133,164,133Zm-1.61-35C143,98,143,104.84,143,113.5c0,7.07,3.12,15.5,18,15.5h3c12.36,0,21-6.37,21-15.5,0-8.66,0-15.5-19.39-15.5Z"/><path id="Stuff" class="cls-27" d="M71,97.77c.7-.67,8.26-5.77,29.55-5.77,17.85,0,21.63,1.85,27.35,4.65l.42.21a17.16,17.16,0,0,0,4.81.91,17.13,17.13,0,0,0,4.56-.87c6.53-3.18,12.92-4.9,27.86-4.9,21.29,0,28.85,5.1,29.55,5.77a2.92,2.92,0,0,1,2.95,2.89v2.88a2.92,2.92,0,0,1-2.95,2.89s-6.91,0-6.91,2.88-2-4.17-2-5.77v-2.81a52.76,52.76,0,0,0-20.68-3.94c-11.84,0-17.74,2.1-22.8,4.18l.06.14v2l-2.22,5.35-2.74-1.08a12,12,0,0,0-1.5-.45,14,14,0,0,0-6-.28,7.65,7.65,0,0,0-1.89.64l-2.64,1.29-2.64-5.16.11-2.3.08-.19c-4.36-2-8.38-4.12-22.82-4.12a52.76,52.76,0,0,0-20.68,3.94v2.81c0,1.6-3,8.66-3,5.77S71,106.43,71,106.43a2.92,2.92,0,0,1-3-2.89v-2.88A2.92,2.92,0,0,1,71,97.77Z"/></g></g></g></g></g></g></g></g></g></g></g><path class="cls-6" d="M75.5,97.28a17.43,17.43,0,0,0,3.2-1.71A89.87,89.87,0,0,1,80.17,83.1a71.36,71.36,0,0,1,3.62-13.36,41.19,41.19,0,0,1,3-5.85c.89-1.44,1.86-2.69,3.79-5.21,1.36-1.76,2.34-3,3.79-4.67,0,0,1.65-1.85,3.29-3.43,8.18-7.86,65.42-.69,65.49-.69h.06l0,0a17.85,17.85,0,0,1,3.2,2.73c.59.71.31.65,1.11,1.76s1.43,1.58,1.74,2a48.59,48.59,0,0,0,4.06,4.08c1.79,1.72,2.57,2.39,4.42,4.23a17.78,17.78,0,0,1,2.19,2.44,15.48,15.48,0,0,1,1.83,3.69,58.68,58.68,0,0,1,1.94,6.2c1,4.17,1.5,6.26,2.14,9.78,1.06,5.75,1.34,8.94,2.41,9,.23,0,.46-.11.9-.57a11.42,11.42,0,0,0,2.53-5.39c5.93-15.06-12.54-39.37-32.5-49.83C138.45,29.2,103,26.37,85.5,49.22,71.86,67,74,91.77,75.5,97.28Z"/><circle class="cls-6" cx="107" cy="112" r="6"/><circle class="cls-6" cx="159" cy="112" r="6"/><circle cx="107" cy="112" r="2.47"/><circle class="cls-1" cx="108.45" cy="110" r="0.79"/><circle cx="159" cy="111.88" r="2.47"/><circle class="cls-1" cx="160.45" cy="109.88" r="0.79"/><path class="cls-28" d="M151.3,152.31a19.1,19.1,0,0,1-3.8,6.95,17.79,17.79,0,0,1-1.64,1.65l-.05.05a18.35,18.35,0,0,1-6,3.55l-.43.15-.46.14-.68.18a17.55,17.55,0,0,1-1.93.37l-.78.09-.33,0-1.2.06h-1.27a19.4,19.4,0,0,1-4.86-1,17.7,17.7,0,0,1-3.55-1.67,16.38,16.38,0,0,1-2.13-1.53.57.57,0,0,1-.13-.1l-.08-.06a19.9,19.9,0,0,1-5-6.77c-1.14-2.66-1.85-4-1.29-5.31a3.61,3.61,0,0,1,1.16-1.47l.12-.08a3.43,3.43,0,0,1,.31-.21c3.68-2.29,8.79,2.56,16.06,2.5,6.84-.07,12.19-4.45,16.07-2.79a6.71,6.71,0,0,1,.88.45l.11.07a3.32,3.32,0,0,1,1.16,1.35C151.73,149.32,152,150.08,151.3,152.31Z"/><path class="cls-29" d="M145.86,160.91l-.05.05a18.35,18.35,0,0,1-6,3.55l-.43.15-.46.14-.68.18a17.55,17.55,0,0,1-1.93.37l-.78.09-.33,0-1.2.06h-1.27a19.4,19.4,0,0,1-4.86-1,17.7,17.7,0,0,1-3.55-1.67,16.38,16.38,0,0,1-2.13-1.53.57.57,0,0,1-.13-.1,24.73,24.73,0,0,1,23.82-.32Z"/><path class="cls-1" d="M150.38,147.31a12.91,12.91,0,0,1-2.55,3.05c-3.66,3.19-8.12,3.26-14,3.26s-10.86-.06-14.74-3.55a12.67,12.67,0,0,1-2.29-2.71,3.91,3.91,0,0,1,.43-.23c3.68-1.77,9.08.63,16.34.58,6.84-.05,11.91-2.08,15.78-.8A5.79,5.79,0,0,1,150.38,147.31Z"/><path class="cls-6" d="M85.48,50.73a89.18,89.18,0,0,0,46.26,12.45,88.79,88.79,0,0,0,48.53-14.67,75.45,75.45,0,0,0-37-14.67C111.69,30.32,89.05,47.87,85.48,50.73Z"/><path class="cls-30" d="M124.58,257.5a.9.9,0,0,1-.11-.46,1,1,0,0,1,.29-.72,1,1,0,0,1,.72-.29,1,1,0,0,1,.71.29,1.17,1.17,0,0,1,.21.3h0l4.13,10,4.08-9.82a1,1,0,0,1,1-.73,1,1,0,0,1,.72.29,1.12,1.12,0,0,1,.2.3h0l4.15,10,4.07-9.82a1,1,0,0,1,.26-.44,1,1,0,0,1,.71-.29,1,1,0,0,1,1,1,.86.86,0,0,1-.05.32h0l-5,12h0a1.34,1.34,0,0,1-.32.49,1,1,0,0,1-.71.3.94.94,0,0,1-.71-.3,1,1,0,0,1-.28-.45h0l-4.06-9.75-4,9.71h0a1.19,1.19,0,0,1-.31.49,1,1,0,0,1-.72.3.94.94,0,0,1-.7-.3,1,1,0,0,1-.29-.45h0Z"/><path class="cls-30" d="M121.32,260.56a1.08,1.08,0,0,1-.2.29,1,1,0,0,1-1.73-.71,1,1,0,0,1,.11-.46l5-11.93h0a1,1,0,0,1,.28-.46,1,1,0,0,1,.71-.29,1,1,0,0,1,.72.29,1.39,1.39,0,0,1,.31.5h0l4,9.71,4.07-9.75h0a1,1,0,0,1,.27-.46,1,1,0,0,1,.71-.29,1,1,0,0,1,.72.29,1.48,1.48,0,0,1,.31.5h0l5,12h0a1.13,1.13,0,0,1,0,.32,1,1,0,0,1-.3.72,1,1,0,0,1-.71.29.94.94,0,0,1-.71-.3.85.85,0,0,1-.26-.43l-4.08-9.82-4.14,10h0a.89.89,0,0,1-.2.29,1,1,0,0,1-.72.3.94.94,0,0,1-.7-.3.87.87,0,0,1-.27-.43l-4.07-9.82-4.15,10Z"/><circle class="cls-30" cx="135.56" cy="264.12" r="1.02"/><path class="cls-30" d="M130.85,253.64l.91-2.25a.37.37,0,0,0-.34-.51h-1.81a.37.37,0,0,0-.35.51l.9,2.25A.37.37,0,0,0,130.85,253.64Z"/><rect class="cls-31" x="116.12" y="243.62" width="33.82" height="29.94" rx="5.62"/></g></g></svg>