<svg xmlns="http://www.w3.org/2000/svg" viewBox="0 0 68.28 52.52"><g id="Layer_2" data-name="Layer 2"><g id="Type"><path d="M13,20.83a2.52,2.52,0,0,1-.28-1.16,2.56,2.56,0,0,1,2.53-2.53,2.55,2.55,0,0,1,1.8.73,3,3,0,0,1,.5.76h0l10.33,24.9L38.06,19a2.5,2.5,0,0,1,2.42-1.85,2.55,2.55,0,0,1,1.8.73,2.77,2.77,0,0,1,.5.76h0l10.33,24.9L63.33,19A2.37,2.37,0,0,1,64,17.87a2.41,2.41,0,0,1,1.76-.73,2.54,2.54,0,0,1,2.53,2.53,2.69,2.69,0,0,1-.12.81h0L55.7,50.53l-.1,0a2.58,2.58,0,0,1-2.48,2,2.36,2.36,0,0,1-1.77-.76,2.27,2.27,0,0,1-.68-1.13h0L40.51,26.26,30.43,50.53l-.11,0a2.31,2.31,0,0,1-.68,1.26,2.42,2.42,0,0,1-1.79.76,2.36,2.36,0,0,1-1.77-.76,2.2,2.2,0,0,1-.68-1.13h0Z"/><path d="M4.83,33.89a2.41,2.41,0,0,1-.51.73,2.42,2.42,0,0,1-1.79.76,2.41,2.41,0,0,1-1.78-.75,2.51,2.51,0,0,1-.47-2.94L12.69,1.9h0A2.47,2.47,0,0,1,13.39.73,2.41,2.41,0,0,1,15.16,0,2.51,2.51,0,0,1,17,.73,2.46,2.46,0,0,1,17.64,2l.1,0L27.82,26.26,38,1.9h0A2.41,2.41,0,0,1,38.67.73,2.37,2.37,0,0,1,40.43,0a2.49,2.49,0,0,1,1.8.73A2.46,2.46,0,0,1,42.91,2L43,2,55.5,32h0a2.75,2.75,0,0,1,.13.81,2.56,2.56,0,0,1-2.53,2.53,2.36,2.36,0,0,1-1.77-.76,2.21,2.21,0,0,1-.66-1.08L40.46,9,30.12,33.89h0a2.58,2.58,0,0,1-2.3,1.49A2.36,2.36,0,0,1,26,34.62a2.21,2.21,0,0,1-.66-1.08L15.19,9,4.85,33.89Z"/><circle cx="40.48" cy="38.72" r="2.54"/><path d="M28.49,16.74l2.38-5.84a.87.87,0,0,0-.81-1.2h-4.7a.88.88,0,0,0-.82,1.19l2.33,5.84A.87.87,0,0,0,28.49,16.74Z"/></g></g></svg>