<svg xmlns="http://www.w3.org/2000/svg" viewBox="0 0 73.13 64.86"><defs><style>.cls-1{fill:#1a1a1a;}.cls-2{fill:none;stroke:#1a1a1a;stroke-miterlimit:10;stroke-width:1.12px;}</style></defs><g id="Layer_2" data-name="Layer 2"><g id="Layer_1-2" data-name="Layer 1"><path class="cls-1" d="M18.56,30.12a2.19,2.19,0,0,1-.23-1A2.16,2.16,0,0,1,22,27.6a2.23,2.23,0,0,1,.43.65h0l8.81,21.2,8.67-20.9a2.06,2.06,0,0,1,.57-.95A2,2,0,0,1,42,27a2.11,2.11,0,0,1,1.53.62,2.23,2.23,0,0,1,.43.65h0l8.83,21.2,8.68-20.9A2,2,0,0,1,62,27.6a2,2,0,0,1,1.5-.62,2.08,2.08,0,0,1,1.52.63,2.1,2.1,0,0,1,.64,1.52,2.26,2.26,0,0,1-.11.69h0L55,55.42h0a2.62,2.62,0,0,1-.66,1,2.1,2.1,0,0,1-1.53.65,2,2,0,0,1-1.51-.65,2.19,2.19,0,0,1-.6-1h0L42,34.75,33.44,55.42h0a2.77,2.77,0,0,1-.66,1,2.13,2.13,0,0,1-1.53.65,2,2,0,0,1-1.51-.65,2.1,2.1,0,0,1-.6-1h0Z"/><path class="cls-1" d="M11.63,36.62a2,2,0,0,1-.43.63,2.09,2.09,0,0,1-1.53.64,2.15,2.15,0,0,1-1.91-3.14L18.33,9.36h0a2.3,2.3,0,0,1,.6-1,2.08,2.08,0,0,1,1.51-.62A2.15,2.15,0,0,1,22,8.37a3,3,0,0,1,.67,1.08h0l8.59,20.67L39.88,9.36h0a2.16,2.16,0,0,1,.58-1A2.08,2.08,0,0,1,42,7.75a2.15,2.15,0,0,1,1.53.62,3.45,3.45,0,0,1,.67,1.08h0L54.8,35.05h0a2.26,2.26,0,0,1,.11.69,2.17,2.17,0,0,1-2.15,2.15,2,2,0,0,1-1.51-.64,1.86,1.86,0,0,1-.56-.93L42,15.41l-8.8,21.21h0a2,2,0,0,1-.43.63,2.09,2.09,0,0,1-1.53.64,2,2,0,0,1-1.5-.64,1.86,1.86,0,0,1-.56-.93L20.46,15.41,11.63,36.62Z"/><circle class="cls-1" cx="41.96" cy="44.21" r="2.16"/><path class="cls-1" d="M31.52,22.87l2.58-6.34a.37.37,0,0,0-.34-.51H28.65a.38.38,0,0,0-.35.51l2.53,6.34A.37.37,0,0,0,31.52,22.87Z"/><rect class="cls-2" x="0.56" y="0.56" width="72.01" height="63.74" rx="5.62"/></g></g></svg>