<svg xmlns="http://www.w3.org/2000/svg" viewBox="0 0 58.18 49.37"><defs><style>.cls-1{fill:#1a1a1a;}</style></defs><g id="Layer_2" data-name="Layer 2"><g id="Layer_1-2" data-name="Layer 1"><path class="cls-1" d="M11,22.37a2.19,2.19,0,0,1-.23-1A2.15,2.15,0,0,1,13,19.23a2.15,2.15,0,0,1,1.53.62,2.23,2.23,0,0,1,.43.65h0l8.81,21.21L32.42,20.8a2.12,2.12,0,0,1,.56-.95,2.08,2.08,0,0,1,1.51-.62,2.15,2.15,0,0,1,1.53.62,2.23,2.23,0,0,1,.43.65h0l8.83,21.21L54,20.8a2,2,0,0,1,.56-.95,2,2,0,0,1,1.5-.62,2.08,2.08,0,0,1,1.52.63,2.1,2.1,0,0,1,.64,1.52,2.22,2.22,0,0,1-.11.69h0L47.45,47.67h0a2.73,2.73,0,0,1-.66,1.06,2.1,2.1,0,0,1-1.53.64,2,2,0,0,1-1.51-.64,2.28,2.28,0,0,1-.6-1h0L34.51,27,25.92,47.67h0a2.78,2.78,0,0,1-.67,1.06,2.08,2.08,0,0,1-1.52.64,2,2,0,0,1-1.51-.64,2.19,2.19,0,0,1-.6-1h0Z"/><path class="cls-1" d="M4.11,28.87a2,2,0,0,1-.43.63,2.09,2.09,0,0,1-1.53.64,2.05,2.05,0,0,1-1.51-.63A2,2,0,0,1,0,28a2.07,2.07,0,0,1,.24-1L10.81,1.62h0a2.33,2.33,0,0,1,.6-1A2.08,2.08,0,0,1,12.92,0a2.15,2.15,0,0,1,1.53.62,2.8,2.8,0,0,1,.66,1.08h0l8.6,20.67L32.36,1.62h0a2.19,2.19,0,0,1,.58-1A2.08,2.08,0,0,1,34.45,0,2.15,2.15,0,0,1,36,.62a3.45,3.45,0,0,1,.67,1.08h0L47.28,27.3h0a2.26,2.26,0,0,1,.11.69,2,2,0,0,1-.64,1.52,2.07,2.07,0,0,1-1.51.63,2,2,0,0,1-1.51-.64,1.82,1.82,0,0,1-.56-.93L34.47,7.67l-8.8,21.2h0a2,2,0,0,1-.43.63,2.09,2.09,0,0,1-1.53.64,2,2,0,0,1-1.5-.64,1.82,1.82,0,0,1-.56-.93L12.94,7.67,4.11,28.87Z"/><circle class="cls-1" cx="34.44" cy="36.46" r="2.16"/><path class="cls-1" d="M24,15.12l2.58-6.34a.37.37,0,0,0-.34-.51H21.13a.38.38,0,0,0-.35.51l2.53,6.34A.37.37,0,0,0,24,15.12Z"/></g></g></svg>