<svg xmlns="http://www.w3.org/2000/svg" xmlns:xlink="http://www.w3.org/1999/xlink" viewBox="0 0 264 281.28"><defs><style>.cls-1,.cls-2{fill:#fff;}.cls-13,.cls-17,.cls-19,.cls-2,.cls-24{fill-rule:evenodd;}.cls-3{fill:#e6e6e6;}.cls-4{mask:url(#mask);}.cls-5{fill:#ffb1b1;}.cls-6{fill:#4a312c;}.cls-7{mask:url(#mask-2-2);}.cls-8{fill:#d0c6ac;}.cls-9{mask:url(#mask-3);}.cls-10{fill:#ffdbac;}.cls-11{mask:url(#mask-4-2);}.cls-12{fill-opacity:0.1;}.cls-13{fill:#b7c1db;}.cls-14{mask:url(#mask-5);}.cls-15{fill:#75eab5;}.cls-16{mask:url(#mask-6-2);}.cls-17{fill:#f4f4f4;}.cls-18{mask:url(#mask-7);}.cls-19,.cls-21{fill-opacity:0.16;}.cls-20{fill-opacity:0.7;}.cls-22{fill-opacity:0.6;}.cls-23{mask:url(#mask-8-2);}.cls-24{fill:#331b0c;}.cls-25{mask:url(#mask-9);}.cls-26{fill:#252c2f;}.cls-27{fill:#c15766;}.cls-28{fill:#ff7381;}</style><mask id="mask" x="12" y="33.28" width="240" height="240" maskUnits="userSpaceOnUse"><g id="mask-2"><circle id="path-1" class="cls-1" cx="132" cy="153.28" r="120"/></g></mask><mask id="mask-2-2" x="0" y="-6.72" width="264" height="280" maskUnits="userSpaceOnUse"><g id="mask-4"><path id="path-3" class="cls-2" d="M12,153.28a120,120,0,0,0,240,0h12v-160H0v160Z"/></g></mask><mask id="mask-3" x="0" y="29.28" width="264" height="244" maskUnits="userSpaceOnUse"><g id="mask-6"><path id="path-5" class="cls-2" d="M156,173.89v18.39h4a72,72,0,0,1,72,72v9H32v-9a72,72,0,0,1,72-72h4V173.89a56,56,0,0,1-31.69-44.73A12,12,0,0,1,66,117.28v-14A12,12,0,0,1,76,91.44V85.28h0a56,56,0,0,1,56-56h0a56,56,0,0,1,56,56v6.16a12,12,0,0,1,10,11.84v14a12,12,0,0,1-10.31,11.88A56,56,0,0,1,156,173.89Z"/></g></mask><mask id="mask-4-2" x="32" y="29.28" width="200" height="244" maskUnits="userSpaceOnUse"><g id="mask-8"><path id="path-7" class="cls-2" d="M156,173.89v18.39h4a72,72,0,0,1,72,72v9H32v-9a72,72,0,0,1,72-72h4V173.89a56,56,0,0,1-31.69-44.73A12,12,0,0,1,66,117.28v-14A12,12,0,0,1,76,91.44V85.28h0a56,56,0,0,1,56-56h0a56,56,0,0,1,56,56v6.16a12,12,0,0,1,10,11.84v14a12,12,0,0,1-10.31,11.88A56,56,0,0,1,156,173.89Z"/></g></mask><mask id="mask-5" x="0" y="163.28" width="264" height="110" maskUnits="userSpaceOnUse"><g id="mask-10"><path id="path-9" class="cls-2" d="M108,176.35c-17.92,2-31.72,7.48-32,21.57a72,72,0,0,0-44,66.36h0v9H232v-9a72,72,0,0,0-44-66.36c-.28-14.09-14.08-19.57-32-21.57v18.93h0a24,24,0,0,1-24,24h0a24,24,0,0,1-24-24Z"/></g></mask><mask id="mask-6-2" x="32" y="176.35" width="200" height="96.93" maskUnits="userSpaceOnUse"><g id="mask-12"><path id="path-11" class="cls-2" d="M108,176.35c-17.92,2-31.72,7.48-32,21.57a72,72,0,0,0-44,66.36h0v9H232v-9a72,72,0,0,0-44-66.36c-.28-14.09-14.08-19.57-32-21.57v18.93h0a24,24,0,0,1-24,24h0a24,24,0,0,1-24-24Z"/></g></mask><mask id="mask-7" x="32" y="176" width="200" height="97.28" maskUnits="userSpaceOnUse"><g id="mask-14"><path id="path-13" class="cls-2" d="M108,176.35c-17.92,2-31.72,7.48-32,21.57a72,72,0,0,0-44,66.36h0v9H232v-9a72,72,0,0,0-44-66.36c-.28-14.09-14.08-19.57-32-21.57v18.93h0a24,24,0,0,1-24,24h0a24,24,0,0,1-24-24Z"/></g></mask><mask id="mask-8-2" x="0" y="-6.72" width="264" height="280" maskUnits="userSpaceOnUse"><g id="mask-16"><rect id="path-15" class="cls-1" y="-6.72" width="264" height="280"/></g></mask><mask id="mask-9" x="16" y="65.28" width="224.83" height="216" maskUnits="userSpaceOnUse"><g id="mask-18"><path id="path-17" class="cls-2" d="M149.43,163.44c-2.52,2.3-5.19,3.33-8.58,2.61-.58-.13-2.95-4.54-8.85-4.54s-8.27,4.41-8.85,4.54c-3.39.72-6.07-.31-8.58-2.61-4.72-4.31-8.65-10.26-6.29-16.74,1.23-3.39,3.23-7.1,6.87-8.18,3.89-1.15,9.35,0,13.26-.79a8.56,8.56,0,0,0,3.59-1.45,8.57,8.57,0,0,0,3.58,1.45c3.92.79,9.38-.36,13.27.79,3.64,1.08,5.64,4.79,6.87,8.18,2.36,6.48-1.57,12.43-6.29,16.74m38.65-72.16c-3.41,8.4-2.09,18.85-2.72,27.67-.52,7.17-2,17.91-8.39,22.54-3.25,2.37-9.18,6.35-13.43,5.24-2.93-.77-3.24-9.16-7.08-12.31a22.48,22.48,0,0,0-15.31-4.89c-2.37.11-7.17.08-9.15,1.91-2-1.83-6.78-1.8-9.15-1.91a22.48,22.48,0,0,0-15.31,4.89c-3.84,3.15-4.15,11.54-7.08,12.31-4.25,1.11-10.18-2.87-13.43-5.24-6.37-4.63-7.87-15.37-8.39-22.54-.63-8.82.69-19.27-2.72-27.67-1.66,0-.57,16.12-.57,16.12v20.36c0,15.29,9.59,38.17,30.76,46.91,5.18,2.14,16.91,5.61,25.89,5.61s20.71-3.14,25.89-5.28c21.17-8.74,30.72-31.95,30.76-47.24V107.4s1.09-16.12-.57-16.12"/></g></mask></defs><g id="Layer_2" data-name="Layer 2"><g id="Layer_1-2" data-name="Layer 1"><g id="Circle"><g id="Circle-Background"><circle id="path-1-2" data-name="path-1" class="cls-3" cx="132" cy="153.28" r="120"/></g><g id="Color_Palette_Blue-01-Clipped" data-name="Color/Palette/Blue-01-Clipped"><g class="cls-4"><g id="Color_Palette_Blue-01" data-name="Color/Palette/Blue-01"><rect id="_Color" data-name="ðŸ–Color" class="cls-5" x="12" y="33.28" width="240" height="240"/></g></g></g></g><path class="cls-6" d="M87.82,182a10.39,10.39,0,0,1-5-5.51c-.85-2.59-.16-5.15-.76-5.29s-1.08,2.9-3.56,4.64c-2.1,1.48-5.57,2-6.81.54-1.48-1.69,1.57-4.62,1.84-11.12.12-3,.27-6.66-1.84-8.32-3.81-3-11.7,3.16-13.94.54-.89-1.05-.57-3.14.33-4.32,1.66-2.2,4.78-.54,6.8-2.49,2.26-2.17,1.87-7.56-.64-9.51-1.38-1.06-2.76-.6-6.59-.54-3.42.06-8,.12-10.38-1-5.63-2.54-8-15.33-4.75-25.71C46,103,53.82,100.7,53.17,91.56c-.24-3.49-1.52-5.14-1.15-9.94.46-5.82,2.88-10.39,1.87-11-.64-.36-1.61,1.53-3.88,2a6.89,6.89,0,0,1-6.49-2.31c-1.07-1.57-1.18-4.59,10.81-22.9C59.4,39.73,62,35.82,64.41,33.94A83,83,0,0,1,79.54,25c2.68-1.19,6.54-2.69,6.33-3.89s-3.79-.77-4.32-2.17c-.65-1.73,3.69-5.44,9.8-8.93,11.76-6.7,34.23-14.92,42.06-6.33,2.33,2.55,2.31,5.43,5.33,6.48,4,1.39,6.16-2.92,12.39-2.6,4.55.24,5.57,2.64,9.8,2,3.52-.51,3.63-2.3,6.48-2.74,6.26-.95,15.17,6.26,15.56,13.26.16,3-1.25,5.25.29,7.2,1.39,1.77,3.29.85,5.18,2.16,3.95,2.74.13,9.82,3.17,16.57,2.41,5.35,6,3.45,11.38,9.79,7,8.18,3.38,14,9.94,19.31,5.2,4.19,10.7,3.12,11.67,6.91.83,3.24-2.49,6.79-2.88,7.2-1.31,1.37-2.23,1.58-7.35,4-6.72,3.21-7.09,3.78-7.2,4.32-.74,3.51,9.17,7,8.5,9.94-.5,2.13-8.58.86-8.93,2.59-.2,1,2.28,1.4,3.31,3.31,2.75,5.1-7.87,15-6.34,16.71,1.13,1.25,7.45-3.52,8.93-2s-3.37,6.28-1.73,9.36c1.88,3.53,10.64,1.91,10.66,2.45s-7.39,3.27-16,1.59c-2.09-.42-3.4-.92-4.32-.15-2.63,2.21,2.87,10.57-.14,13.54-1.62,1.6-4,0-6.2,2.16a5.69,5.69,0,0,0-1.58,5.19c.55,2,2.37,2.36,2.16,3.46s-2.48,2-4.47,1.87c-3.1-.2-4.46-2.7-5.47-2.16-1.16.62.58,3.94-.14,7.92-.69,3.78-3.46,7.42-6.49,8.64-5.47,2.22-12.41-3.2-14-4.32C157.09,172.07,137.59,169.62,87.82,182Z"/><g id="Page-1"><g id="mike-avatar"><g id="Avataaar-Clipped"><g class="cls-7"><g id="Avataaar"><g id="Body"><g id="path-5-link"><path id="path-5-2" data-name="path-5" class="cls-8" d="M156,173.89v18.39h4a72,72,0,0,1,72,72v9H32v-9a72,72,0,0,1,72-72h4V173.89a56,56,0,0,1-31.69-44.73A12,12,0,0,1,66,117.28v-14A12,12,0,0,1,76,91.44V85.28h0a56,56,0,0,1,56-56h0a56,56,0,0,1,56,56v6.16a12,12,0,0,1,10,11.84v14a12,12,0,0,1-10.31,11.88A56,56,0,0,1,156,173.89Z"/></g><g id="Skin_-03-Brown-Clipped" data-name="Skin/ðŸ‘¶ðŸ½-03-Brown-Clipped"><g class="cls-9"><g id="Skin_-03-Brown" data-name="Skin/ðŸ‘¶ðŸ½-03-Brown"><g id="Color"><rect id="Rectangle" class="cls-10" y="29.28" width="264" height="244"/></g></g></g></g><g id="Neck-Shadow-Clipped"><g class="cls-11"><path id="Neck-Shadow" class="cls-12" d="M188,108.28v23a56,56,0,0,1-112,0v-8a56,56,0,0,0,112,0Z"/></g></g></g><g id="Clothing_Hoodie" data-name="Clothing/Hoodie"><g id="Hoodie"><path id="react-path-343" class="cls-13" d="M108,176.35c-17.92,2-31.72,7.48-32,21.57a72,72,0,0,0-44,66.36h0v9H232v-9a72,72,0,0,0-44-66.36c-.28-14.09-14.08-19.57-32-21.57v18.93h0a24,24,0,0,1-24,24h0a24,24,0,0,1-24-24Z"/></g><g id="Color_Palette_Gray-01-Clipped" data-name="Color/Palette/Gray-01-Clipped"><g class="cls-14"><g id="Color_Palette_Gray-01" data-name="Color/Palette/Gray-01"><g id="_Color-2" data-name="ðŸ–Color"><rect class="cls-15" y="163.28" width="264" height="110"/></g></g></g></g><g id="Straps-Clipped"><g class="cls-16"><path id="Straps" class="cls-17" d="M102,225v48.26H95V221.43A64.77,64.77,0,0,0,102,225Zm67-3.59v40.35a3.5,3.5,0,0,1-7,0V225A64.77,64.77,0,0,0,169,221.43Z"/></g></g><g id="Shadow-Clipped"><g class="cls-18"><path id="Shadow" class="cls-19" d="M91,176c-15,2.85-25.46,8.52-25.46,19.58,0,19.72,33,35.7,66.5,35.7s66.5-16,66.5-35.7c0-11.06-10.41-16.73-25.46-19.58,9.08,3.35,15,9,15,18.35,0,20.39-27.82,36.93-56,36.93s-56-16.54-56-36.93C76,185,81.88,179.35,91,176Z"/></g></g></g><g id="Face"><g id="Mouth_Default" data-name="Mouth/Default"><path id="Mouth" class="cls-20" d="M118,142.28a14,14,0,0,0,14,14h0a14,14,0,0,0,14-14"/></g><g id="Nose_Default" data-name="Nose/Default"><path id="Nose" class="cls-21" d="M120,123.28c0,4.41,5.37,8,12,8h0c6.63,0,12-3.59,12-8"/></g><g id="Eyes_Default-_" data-name="Eyes/Default-ðŸ˜€"><circle id="Eye" class="cls-22" cx="106" cy="105.28" r="6"/><circle id="Eye-2" data-name="Eye" class="cls-22" cx="158" cy="105.28" r="6"/></g><g id="Eyebrow_Outline_Default" data-name="Eyebrow/Outline/Default"><g id="I-Browse"><path id="Eyebrow" class="cls-22" d="M91.63,92.43c3.92-5.5,14.65-8.59,23.89-6.32a2,2,0,0,0,1-3.89c-10.74-2.63-23.17.94-28.11,7.9a2,2,0,1,0,3.26,2.31Z"/><path id="Eyebrow-2" data-name="Eyebrow" class="cls-22" d="M172.37,92.43c-3.91-5.5-14.65-8.59-23.89-6.32a2,2,0,0,1-1-3.89c10.74-2.63,23.17.94,28.11,7.9a2,2,0,1,1-3.26,2.31Z"/></g></g></g><g id="Top_Short-Hair_Short-Waved-Clipped" data-name="Top/Short-Hair/Short-Waved-Clipped"><g class="cls-23"><g id="Top_Short-Hair_Short-Waved" data-name="Top/Short-Hair/Short-Waved"><g id="Group"><g id="Facial-Hair_Beard-Light" data-name="Facial-Hair/Beard-Light"><g id="Lite-Beard"><path id="react-path-342" class="cls-24" d="M149.43,163.44c-2.52,2.3-5.19,3.33-8.58,2.61-.58-.13-2.95-4.54-8.85-4.54s-8.27,4.41-8.85,4.54c-3.39.72-6.07-.31-8.58-2.61-4.72-4.31-8.65-10.26-6.29-16.74,1.23-3.39,3.23-7.1,6.87-8.18,3.89-1.15,9.35,0,13.26-.79a8.56,8.56,0,0,0,3.59-1.45,8.57,8.57,0,0,0,3.58,1.45c3.92.79,9.38-.36,13.27.79,3.64,1.08,5.64,4.79,6.87,8.18,2.36,6.48-1.57,12.43-6.29,16.74m38.65-72.16c-3.41,8.4-2.09,18.85-2.72,27.67-.52,7.17-2,17.91-8.39,22.54-3.25,2.37-9.18,6.35-13.43,5.24-2.93-.77-3.24-9.16-7.08-12.31a22.48,22.48,0,0,0-15.31-4.89c-2.37.11-7.17.08-9.15,1.91-2-1.83-6.78-1.8-9.15-1.91a22.48,22.48,0,0,0-15.31,4.89c-3.84,3.15-4.15,11.54-7.08,12.31-4.25,1.11-10.18-2.87-13.43-5.24-6.37-4.63-7.87-15.37-8.39-22.54-.63-8.82.69-19.27-2.72-27.67-1.66,0-.57,16.12-.57,16.12v20.36c0,15.29,9.59,38.17,30.76,46.91,5.18,2.14,16.91,5.61,25.89,5.61s20.71-3.14,25.89-5.28c21.17-8.74,30.72-31.95,30.76-47.24V107.4s1.09-16.12-.57-16.12"/></g><g id="Color_Hair_Brown-Clipped" data-name="Color/Hair/Brown-Clipped"><g class="cls-25"><g id="Color_Hair_Brown" data-name="Color/Hair/Brown"><g id="Color-2" data-name="Color"><rect id="Rectangle-2" data-name="Rectangle" class="cls-6" x="16" y="65.28" width="224.83" height="216"/></g></g></g></g></g><g id="Top__Resources_Prescription-02" data-name="Top/_Resources/Prescription-02"><g id="Wayfarers"><path id="Left" class="cls-26" d="M101,126.28H98.24c-13.93,0-22.24-7.67-22.24-20.5,0-10.38,1.82-20.5,23.53-20.5h2.94c21.71,0,23.53,10.12,23.53,20.5C126,117.84,115.72,126.28,101,126.28Zm-1.61-35C80,91.28,80,98.12,80,106.78c0,7.07,3.12,15.5,18,15.5h3c12.36,0,21-6.38,21-15.5,0-8.66,0-15.5-19.39-15.5Z"/><path id="Right" class="cls-26" d="M163,126.28h-2.76c-13.93,0-22.24-7.67-22.24-20.5,0-10.38,1.82-20.5,23.53-20.5h2.94c21.71,0,23.53,10.12,23.53,20.5C188,117.84,177.72,126.28,163,126.28Zm-1.61-35C142,91.28,142,98.12,142,106.78c0,7.07,3.12,15.5,18,15.5h3c12.36,0,21-6.38,21-15.5,0-8.66,0-15.5-19.39-15.5Z"/><path id="Stuff" class="cls-26" d="M70,91.05c.7-.68,8.26-5.77,29.55-5.77,17.85,0,21.63,1.85,27.35,4.65l.42.2a16.42,16.42,0,0,0,4.81.91,16.72,16.72,0,0,0,4.56-.87c6.53-3.17,12.92-4.89,27.86-4.89,21.29,0,28.85,5.09,29.55,5.77A2.92,2.92,0,0,1,197,93.93v2.89a2.92,2.92,0,0,1-2.95,2.88s-6.91,0-6.91,2.89-2-4.18-2-5.77V94a52.71,52.71,0,0,0-20.68-4c-11.84,0-17.74,2.1-22.8,4.19l.06.13v2l-2.22,5.35-2.74-1.08a12,12,0,0,0-1.5-.45,13.81,13.81,0,0,0-6-.28,8.07,8.07,0,0,0-1.89.63l-2.64,1.29-2.64-5.16.11-2.29.08-.2c-4.36-2-8.38-4.12-22.82-4.12a52.71,52.71,0,0,0-20.68,4v2.81c0,1.59-3,8.66-3,5.77S70,99.7,70,99.7a2.92,2.92,0,0,1-3-2.88V93.93A2.92,2.92,0,0,1,70,91.05Z"/></g></g></g></g></g></g></g></g></g></g></g><path class="cls-6" d="M74.5,90.55a16.79,16.79,0,0,0,3.2-1.7,90,90,0,0,1,1.47-12.48A71.43,71.43,0,0,1,82.79,63a40.58,40.58,0,0,1,3-5.85A63.5,63.5,0,0,1,89.54,52c1.36-1.77,2.34-3,3.79-4.67,0,0,1.65-1.85,3.29-3.43,8.18-7.87,65.42-.69,65.49-.69a.07.07,0,0,1,.06,0l0,0a17.17,17.17,0,0,1,3.2,2.72c.59.71.31.66,1.11,1.76s1.43,1.59,1.74,2a52,52,0,0,0,4.06,4.08c1.79,1.72,2.57,2.38,4.42,4.23a17.2,17.2,0,0,1,2.19,2.44,15.29,15.29,0,0,1,1.83,3.69,59,59,0,0,1,1.94,6.19c1,4.18,1.5,6.26,2.14,9.78,1.06,5.76,1.34,9,2.41,9,.23,0,.46-.11.9-.58a11.36,11.36,0,0,0,2.53-5.38c5.93-15.06-12.54-39.37-32.5-49.84C137.45,22.47,102,19.65,84.5,42.5,70.86,60.3,73,85.05,74.5,90.55Z"/><path d="M124.46,251.82a1,1,0,0,1-.13-.52,1.06,1.06,0,0,1,.34-.79,1.07,1.07,0,0,1,.79-.33,1.09,1.09,0,0,1,.8.32,1.2,1.2,0,0,1,.23.34h0L131.12,262l4.55-11a1,1,0,0,1,.29-.5,1.06,1.06,0,0,1,.79-.32,1.09,1.09,0,0,1,.8.32,1.46,1.46,0,0,1,.23.34h0L142.41,262,147,251a1,1,0,0,1,.29-.5,1.14,1.14,0,0,1,1.92.8,1.15,1.15,0,0,1-.06.37h0l-5.57,13.42h-.05a1.13,1.13,0,0,1-1.11.9,1.06,1.06,0,0,1-.79-.34,1,1,0,0,1-.3-.51h0l-4.53-10.88-4.5,10.84h0a1.13,1.13,0,0,1-1.1.9,1,1,0,0,1-.79-.34,1.06,1.06,0,0,1-.31-.51h0Z"/><path d="M120.82,257.66a.87.87,0,0,1-.22.32,1.13,1.13,0,0,1-1.93-.79,1.17,1.17,0,0,1,.12-.52l5.54-13.31h0a1,1,0,0,1,.3-.51,1.07,1.07,0,0,1,.79-.33,1.09,1.09,0,0,1,.8.33,1.08,1.08,0,0,1,.31.57h0l4.51,10.84,4.52-10.89h0a1.1,1.1,0,0,1,.31-.51,1.07,1.07,0,0,1,.79-.33,1.11,1.11,0,0,1,.8.33,1,1,0,0,1,.3.57h0l5.58,13.42h0a1.42,1.42,0,0,1,.05.36,1.13,1.13,0,0,1-1.13,1.13,1,1,0,0,1-.79-.34.93.93,0,0,1-.29-.48l-4.55-11-4.62,11.12h0a1,1,0,0,1-.22.32,1.1,1.1,0,0,1-.81.34,1.06,1.06,0,0,1-.79-.34,1,1,0,0,1-.29-.48l-4.55-11-4.62,11.12Z"/><circle cx="136.75" cy="259.81" r="1.13"/><path d="M131.85,248.89l.34-.84a.87.87,0,0,0-.81-1.2h-.67a.88.88,0,0,0-.82,1.2l.34.83A.88.88,0,0,0,131.85,248.89Z"/><circle class="cls-6" cx="106" cy="105.28" r="6"/><circle class="cls-6" cx="158" cy="105.28" r="6"/><circle cx="106" cy="105.28" r="2.47"/><circle class="cls-1" cx="107.45" cy="103.28" r="0.79"/><circle cx="158" cy="105.15" r="2.47"/><circle class="cls-1" cx="159.45" cy="103.15" r="0.79"/><path class="cls-27" d="M150.3,145.58a19.1,19.1,0,0,1-3.8,6.95,17.79,17.79,0,0,1-1.64,1.65l-.05,0a18.35,18.35,0,0,1-6,3.55l-.43.15-.46.14-.68.18a17.55,17.55,0,0,1-1.93.37l-.78.09-.33,0-1.2.06h-1.27a19.4,19.4,0,0,1-4.86-1,17.7,17.7,0,0,1-3.55-1.67,16.38,16.38,0,0,1-2.13-1.53.57.57,0,0,1-.13-.1l-.08-.06a19.9,19.9,0,0,1-5-6.77c-1.14-2.66-1.85-3.95-1.29-5.31a3.61,3.61,0,0,1,1.16-1.47l.12-.08a3.43,3.43,0,0,1,.31-.21c3.68-2.29,8.79,2.56,16.06,2.5,6.84-.07,12.19-4.45,16.07-2.79a6.71,6.71,0,0,1,.88.45l.11.07a3.32,3.32,0,0,1,1.16,1.35C150.73,142.59,151,143.35,150.3,145.58Z"/><path class="cls-28" d="M144.86,154.18l-.05,0a18.35,18.35,0,0,1-6,3.55l-.43.15-.46.14-.68.18a17.55,17.55,0,0,1-1.93.37l-.78.09-.33,0-1.2.06h-1.27a19.4,19.4,0,0,1-4.86-1,17.7,17.7,0,0,1-3.55-1.67,16.38,16.38,0,0,1-2.13-1.53.57.57,0,0,1-.13-.1,24.73,24.73,0,0,1,23.82-.32Z"/><path class="cls-1" d="M149.38,140.59a13.32,13.32,0,0,1-2.55,3c-3.66,3.19-8.12,3.25-14,3.26s-10.86-.07-14.74-3.55a12.68,12.68,0,0,1-2.29-2.72c.17-.1.33-.17.43-.22,3.68-1.77,9.08.62,16.34.57,6.84,0,11.91-2.08,15.78-.8A7.07,7.07,0,0,1,149.38,140.59Z"/><path class="cls-6" d="M84.61,44a89.27,89.27,0,0,0,46.26,12.44,88.66,88.66,0,0,0,48.52-14.67,75.28,75.28,0,0,0-37-14.66C110.81,23.54,88.18,41.08,84.61,44Z"/></g></g></svg>