<svg xmlns="http://www.w3.org/2000/svg" viewBox="0 0 75.01 66.74"><defs><style>.cls-1{fill:#1a1a1a;}.cls-2{fill:none;stroke:#1a1a1a;stroke-miterlimit:10;stroke-width:3px;}</style></defs><g id="Layer_2" data-name="Layer 2"><g id="Layer_1-2" data-name="Layer 1"><path class="cls-1" d="M19.5,31.06a2.19,2.19,0,0,1-.23-1,2.15,2.15,0,0,1,2.15-2.15,2.11,2.11,0,0,1,1.53.62,2.23,2.23,0,0,1,.43.65h0l8.81,21.2,8.67-20.9a2.12,2.12,0,0,1,.56-.95A2,2,0,0,1,43,27.92a2.11,2.11,0,0,1,1.53.62,2.23,2.23,0,0,1,.43.65h0l8.83,21.2,8.68-20.9a2,2,0,0,1,.56-.95,2,2,0,0,1,1.5-.62,2.17,2.17,0,0,1,2.16,2.15,2.26,2.26,0,0,1-.11.69h0L55.91,56.36h0a2.62,2.62,0,0,1-.66,1,2.1,2.1,0,0,1-1.53.65,2,2,0,0,1-1.51-.65,2.17,2.17,0,0,1-.6-1h0L43,35.69,34.38,56.36h0a2.68,2.68,0,0,1-.67,1,2.09,2.09,0,0,1-1.52.65,2,2,0,0,1-1.51-.65,2.08,2.08,0,0,1-.6-1h0Z"/><path class="cls-1" d="M12.57,37.56a2,2,0,0,1-.43.63,2.09,2.09,0,0,1-1.53.64A2.15,2.15,0,0,1,8.7,35.69L19.27,10.3h0a2.25,2.25,0,0,1,.6-1,2.08,2.08,0,0,1,1.51-.62,2.15,2.15,0,0,1,1.53.62,3,3,0,0,1,.67,1.08h0l8.59,20.67L40.82,10.3h0a2.11,2.11,0,0,1,.58-1,2.08,2.08,0,0,1,1.51-.62,2.15,2.15,0,0,1,1.53.62,3.45,3.45,0,0,1,.67,1.08h0L55.74,36h0a2.26,2.26,0,0,1,.11.69,2.17,2.17,0,0,1-2.15,2.15,2,2,0,0,1-1.51-.64,1.9,1.9,0,0,1-.56-.93L42.93,16.35l-8.8,21.21h0a2,2,0,0,1-.43.63,2.09,2.09,0,0,1-1.53.64,2,2,0,0,1-1.5-.64,1.9,1.9,0,0,1-.56-.93L21.4,16.35,12.57,37.56Z"/><circle class="cls-1" cx="42.9" cy="45.15" r="2.16"/><path class="cls-1" d="M32.46,23.81,35,17.47A.37.37,0,0,0,34.7,17H29.59a.38.38,0,0,0-.35.51l2.53,6.34A.37.37,0,0,0,32.46,23.81Z"/><rect class="cls-2" x="1.5" y="1.5" width="72.01" height="63.74" rx="5.62"/></g></g></svg>